<svg viewBox="0 0 17 16" fill="none" xmlns="http://www.w3.org/2000/svg">
<path d="M17 15C17 15.552 16.524 16 15.9375 16H1.0625C0.476 16 0 15.552 0 15V1C0 0.448 0.476 0 1.0625 0H15.9375C16.524 0 17 0.448 17 1V15Z" fill="#4F4F4F"/>
<path d="M2.125 0H0V7H2.125V0Z" transform="translate(3.71875 5.5)" fill="white"/>
<path d="M3.98384 0C2.50113 0 2.24612 0.509 2.125 1V0H0V7H2.125V3C2.125 2.3515 2.49847 2 3.1875 2C3.86006 2 4.25 2.344 4.25 3V7H6.375V3.5C6.375 1.5 6.09822 0 3.98384 0Z" transform="translate(6.90625 5.5)" fill="white"/>
<path d="M1.0625 2C1.6493 2 2.125 1.55228 2.125 1C2.125 0.447715 1.6493 0 1.0625 0C0.475697 0 0 0.447715 0 1C0 1.55228 0.475697 2 1.0625 2Z" transform="translate(3.71875 3)" fill="white"/>
</svg>
