<?xml version="1.0" encoding="UTF-8" standalone="no"?>
<svg
   xmlns:dc="http://purl.org/dc/elements/1.1/"
   xmlns:cc="http://creativecommons.org/ns#"
   xmlns:rdf="http://www.w3.org/1999/02/22-rdf-syntax-ns#"
   xmlns:svg="http://www.w3.org/2000/svg"
   xmlns="http://www.w3.org/2000/svg"
   viewBox="0 0 1006.2267 381.33334"
   height="381.33334"
   width="1006.2267"
   xml:space="preserve"
   id="svg2"
   version="1.1"><metadata
     id="metadata8"><rdf:RDF><cc:Work
         rdf:about=""><dc:format>image/svg+xml</dc:format><dc:type
           rdf:resource="http://purl.org/dc/dcmitype/StillImage" /></cc:Work></rdf:RDF></metadata><defs
     id="defs6" /><g
     transform="matrix(1.3333333,0,0,-1.3333333,0,381.33333)"
     id="g10"><g
       transform="scale(0.1)"
       id="g12"><path
         id="path14"
         style="fill:#c81315;fill-opacity:1;fill-rule:nonzero;stroke:none"
         d="M 2860,0 H 0 V 2860 H 2860 V 0" /><path
         id="path16"
         style="fill:#ffffff;fill-opacity:1;fill-rule:nonzero;stroke:none"
         d="m 991.234,813.148 c 0,199.492 -134.992,332.992 -355.484,332.992 H 502.254 V 478.66 H 635.75 c 220.492,0 355.484,133.488 355.484,334.488 z m 199.496,0 C 1190.73,505.66 988.234,288.172 640.25,288.172 H 302.762 V 1338.13 H 640.25 c 347.984,0 550.48,-217.49 550.48,-524.982" /><path
         id="path18"
         style="fill:#ffffff;fill-opacity:1;fill-rule:nonzero;stroke:none"
         d="M 2162.72,1338.13 V 288.172 H 1963.23 V 717.148 H 1540.25 V 288.172 H 1340.76 V 1338.13 h 199.49 V 907.641 h 422.98 v 430.489 h 199.49" /><path
         id="path20"
         style="fill:#ffffff;fill-opacity:1;fill-rule:nonzero;stroke:none"
         d="M 2557.23,1338.13 V 288.172 H 2357.74 V 1338.13 h 199.49" /><path
         id="path22"
         style="fill:#000000;fill-opacity:1;fill-rule:nonzero;stroke:none"
         d="m 3788.39,1127.98 c 0,79.8 -54,133.19 -142.19,133.19 h -53.4 V 994.191 h 53.4 c 88.19,0 142.19,53.379 142.19,133.789 z m 79.8,0 c 0,-123 -81,-210 -220.19,-210 h -135 v 419.99 h 135 c 139.19,0 220.19,-87 220.19,-209.99" /><path
         id="path24"
         style="fill:#000000;fill-opacity:1;fill-rule:nonzero;stroke:none"
         d="M 4207.19,994.191 V 917.98 H 3928.2 v 419.99 h 275.39 v -76.8 H 4008 v -95.39 h 176.99 v -76.2 H 4008 v -95.389 h 199.19" /><path
         id="path26"
         style="fill:#000000;fill-opacity:1;fill-rule:nonzero;stroke:none"
         d="m 4576.78,1039.78 c 0,-69.6 -48.59,-128.991 -152.99,-128.991 -82.19,0 -156.59,43.801 -168.59,104.391 l 73.19,28.2 c 7.81,-31.8 44.4,-51.599 88.2,-51.599 48.6,0 75,19.199 75,44.999 0,25.2 -20.4,36 -88.8,56.4 -96.59,28.8 -136.19,65.4 -136.19,127.2 0,55.19 40.2,121.19 148.19,121.19 64.2,0 129.6,-34.2 141.59,-94.2 l -70.79,-26.4 c -5.4,26.4 -39.6,40.8 -70.2,41.4 -33.6,0.61 -64.19,-11.4 -64.19,-38.99 0,-19.81 15.59,-32.41 81.59,-52.81 82.79,-25.19 143.99,-52.79 143.99,-130.79" /><path
         id="path28"
         style="fill:#000000;fill-opacity:1;fill-rule:nonzero;stroke:none"
         d="M 4716.57,1337.97 V 917.98 h -79.79 v 419.99 h 79.79" /><path
         id="path30"
         style="fill:#000000;fill-opacity:1;fill-rule:nonzero;stroke:none"
         d="m 5160.56,1144.78 v -133.8 c -34.79,-60 -96.6,-97.8 -173.99,-97.8 -120.6,0 -204,93.6 -204,214.2 0,120.6 83.4,214.19 204,214.19 77.39,0 139.2,-38.4 173.99,-98.4 l -72.6,-36 c -20.4,33.61 -55.19,54.6 -101.39,54.6 -76.8,0 -122.4,-57.59 -122.4,-134.39 0,-76.2 45.6,-133.798 122.4,-133.798 40.8,0 72.59,14.398 93.59,40.198 v 46.8 h -92.39 v 64.2 h 172.79" /><path
         id="path32"
         style="fill:#000000;fill-opacity:1;fill-rule:nonzero;stroke:none"
         d="M 5562.55,1337.97 V 917.98 h -78.59 l -168.6,272.4 v -272.4 h -79.79 v 419.99 h 78 l 169.19,-272.39 v 272.39 h 79.79" /><path
         id="path34"
         style="fill:#000000;fill-opacity:1;fill-rule:nonzero;stroke:none"
         d="M 6137.36,1337.97 V 917.98 h -79.8 v 171.6 h -169.2 v -171.6 h -79.79 v 419.99 h 79.79 v -172.19 h 169.2 v 172.19 h 79.8" /><path
         id="path36"
         style="fill:#000000;fill-opacity:1;fill-rule:nonzero;stroke:none"
         d="m 6533.94,1337.97 v -254.99 c 0,-105 -63.59,-169.8 -160.79,-169.8 -97.79,0 -160.79,64.8 -160.79,169.8 v 254.99 h 79.79 v -253.19 c 0,-56.4 30.6,-91.198 81,-91.198 49.79,0 80.99,34.798 80.99,91.198 v 253.19 h 79.8" /><path
         id="path38"
         style="fill:#000000;fill-opacity:1;fill-rule:nonzero;stroke:none"
         d="m 6826.14,1046.38 c 0,30 -19.8,52.2 -57,52.2 h -80.4 V 994.191 h 80.4 c 37.2,0 57,22.189 57,52.189 z m -137.4,214.79 v -86.4 h 71.4 c 31.2,0 45,20.4 45,43.21 0,23.39 -13.8,43.19 -45,43.19 z m 220.79,-214.79 c 0,-73.2 -47.99,-128.4 -140.39,-128.4 h -160.19 v 419.99 h 149.39 c 80.4,0 128.4,-54.59 128.4,-119.99 0,-30.6 -15.6,-58.8 -37.8,-78.6 37.2,-18 60.59,-49.2 60.59,-93" /><path
         id="path40"
         style="fill:#000000;fill-opacity:1;fill-rule:nonzero;stroke:none"
         d="M 3551.28,675.988 V 297.98 h -28.07 v 378.008 h 28.07" /><path
         id="path42"
         style="fill:#000000;fill-opacity:1;fill-rule:nonzero;stroke:none"
         d="M 3930.91,675.988 V 297.98 h -26.46 L 3671.16,628.469 V 297.98 h -28.08 v 378.008 h 26.46 l 233.29,-327.777 v 327.777 h 28.08" /><path
         id="path44"
         style="fill:#000000;fill-opacity:1;fill-rule:nonzero;stroke:none"
         d="M 4269.48,647.91 H 4146.9 V 297.98 h -28.08 V 647.91 H 3995.7 v 28.078 h 273.78 V 647.91" /><path
         id="path46"
         style="fill:#000000;fill-opacity:1;fill-rule:nonzero;stroke:none"
         d="M 4585.37,326.059 V 297.98 h -251.1 v 378.008 h 247.86 V 647.91 H 4362.35 V 501.031 h 203.04 v -28.082 h -203.04 v -146.89 h 223.02" /><path
         id="path48"
         style="fill:#000000;fill-opacity:1;fill-rule:nonzero;stroke:none"
         d="m 4808.38,472.949 c 56.7,0 92.88,34.563 92.88,87.481 0,53.461 -37.8,87.48 -92.88,87.48 H 4700.37 V 472.949 Z m 100.98,-174.969 -83.7,147.961 c -6.48,-0.531 -12.96,-1.07 -19.44,-1.07 H 4700.37 V 297.98 h -28.6 v 378.008 h 134.45 c 78.31,0 124.74,-48.058 124.74,-115.558 0,-51.84 -27,-92.879 -76.68,-108.539 l 87.48,-153.911 h -32.4" /><path
         id="path50"
         style="fill:#000000;fill-opacity:1;fill-rule:nonzero;stroke:none"
         d="M 5305.18,675.988 V 297.98 h -26.47 L 5045.43,628.469 V 297.98 h -28.07 v 378.008 h 26.45 L 5277.1,348.211 v 327.777 h 28.08" /><path
         id="path52"
         style="fill:#000000;fill-opacity:1;fill-rule:nonzero;stroke:none"
         d="m 5597.86,441.629 -71.82,187.383 -71.28,-187.383 z M 5608.66,413 h -164.7 l -43.74,-115.02 h -30.25 l 144.18,378.008 h 24.31 L 5682.64,297.98 H 5652.4 L 5608.66,413" /><path
         id="path54"
         style="fill:#000000;fill-opacity:1;fill-rule:nonzero;stroke:none"
         d="M 5961.8,647.91 H 5839.22 V 297.98 h -28.07 v 349.93 h -123.13 v 28.078 H 5961.8 V 647.91" /><path
         id="path56"
         style="fill:#000000;fill-opacity:1;fill-rule:nonzero;stroke:none"
         d="M 6049.28,675.988 V 297.98 h -28.08 v 378.008 h 28.08" /><path
         id="path58"
         style="fill:#000000;fill-opacity:1;fill-rule:nonzero;stroke:none"
         d="m 6471.56,486.988 c 0,89.102 -63.18,163.082 -152.28,163.082 -89.1,0 -152.28,-73.98 -152.28,-163.082 0,-89.636 63.18,-163.617 152.28,-163.617 89.1,0 152.28,73.981 152.28,163.617 z m 31.32,0 c 0,-107.457 -76.14,-192.777 -183.6,-192.777 -107.46,0 -183.6,85.32 -183.6,192.777 0,106.922 76.14,192.242 183.6,192.242 107.46,0 183.6,-85.32 183.6,-192.242" /><path
         id="path60"
         style="fill:#000000;fill-opacity:1;fill-rule:nonzero;stroke:none"
         d="M 6877.09,675.988 V 297.98 h -26.46 L 6617.35,628.469 V 297.98 h -28.08 v 378.008 h 26.46 l 233.29,-327.777 v 327.777 h 28.07" /><path
         id="path62"
         style="fill:#000000;fill-opacity:1;fill-rule:nonzero;stroke:none"
         d="m 7169.77,441.629 -71.82,187.383 -71.28,-187.383 z M 7180.57,413 h -164.7 l -43.74,-115.02 h -30.24 l 144.18,378.008 h 24.3 L 7254.55,297.98 h -30.24 L 7180.57,413" /><path
         id="path64"
         style="fill:#000000;fill-opacity:1;fill-rule:nonzero;stroke:none"
         d="M 7546.69,326.059 V 297.98 h -227.34 v 378.008 h 28.08 V 326.059 h 199.26" /><path
         id="path66"
         style="fill:#000000;fill-opacity:1;fill-rule:nonzero;stroke:none"
         d="M 3199.77,289.352 V 1338.17" /><path
         id="path68"
         style="fill:none;stroke:#000000;stroke-width:50;stroke-linecap:butt;stroke-linejoin:miter;stroke-miterlimit:10;stroke-dasharray:none;stroke-opacity:1"
         d="M 3199.77,289.352 V 1338.17" /></g></g></svg>