<svg viewBox="0 0 16 16" fill="none" xmlns="http://www.w3.org/2000/svg">
<path d="M13.8125 0H2.1875C0.979377 0 0 0.979377 0 2.1875V13.8125C0 15.0206 0.979377 16 2.1875 16H13.8125C15.0206 16 16 15.0206 16 13.8125V2.1875C16 0.979377 15.0206 0 13.8125 0Z" transform="translate(16 16) rotate(-180)" fill="#4F4F4F"/>
<path d="M5.93061 1.853C5.8553 1.853 5.80086 1.88906 5.78083 1.95034C5.77283 1.97756 5.7632 1.94875 5.7632 2.14059V2.47384H6.08927V2.14059C6.08927 1.96194 6.07883 1.98841 6.07083 1.96078C6.04998 1.89309 5.99792 1.853 5.93061 1.853ZM4.35889 1.968C4.2892 1.968 4.23555 2.00925 4.21552 2.07694C4.20586 2.10775 4.19542 2.16869 4.19542 2.37413V2.98619C4.19542 3.18484 4.20745 3.24853 4.21789 3.28134C4.2403 3.35306 4.2932 3.39431 4.36292 3.39431C4.43502 3.39431 4.48786 3.35147 4.50945 3.27653C4.5183 3.24331 4.52955 3.17719 4.52955 2.96088V2.37409C4.52955 2.18066 4.51586 2.11572 4.5063 2.08413C4.48305 2.01084 4.42939 1.968 4.35889 1.968ZM7.0473 1.08641C6.98723 0.537657 6.50098 0.0898435 5.95386 0.0513748C4.34767 -0.0171252 2.7447 -0.0171252 1.1377 0.0513748C0.592172 0.0898123 0.10511 0.537657 0.0450471 1.08641C-0.0150154 1.95356 -0.0150154 2.80631 0.0450471 3.67391C0.10511 4.22225 0.592172 4.67047 1.1377 4.70891C2.7447 4.77781 4.34764 4.777 5.95386 4.70891C6.50098 4.67047 6.98723 4.22225 7.0473 3.67391C7.10742 2.80631 7.10742 1.95356 7.0473 1.08641ZM2.05977 1.25341H1.60395V3.81047H1.12655V1.25341H0.672328V0.768375H2.05977V1.25341ZM3.3768 3.81369H2.91933L2.92573 3.68631L2.78314 3.65103C2.74708 3.72197 2.70305 3.77481 2.65339 3.80925C2.60452 3.84212 2.54927 3.85809 2.48517 3.85809C2.41145 3.85809 2.34973 3.84247 2.3033 3.81203C2.25527 3.78038 2.22077 3.73912 2.19839 3.68666C2.17277 3.62778 2.1567 3.5665 2.15114 3.50322C2.14389 3.43509 2.1407 3.29534 2.1407 3.08706V1.50294H2.59248V2.95609C2.59248 3.21847 2.60055 3.28534 2.60855 3.31459C2.62617 3.38269 2.6822 3.42353 2.75833 3.42353C2.83767 3.42353 2.89536 3.38106 2.91133 3.30975C2.91852 3.28013 2.92573 3.21244 2.92573 2.93769V1.50294H3.3768V3.81369ZM4.98052 2.14384V3.35184C4.98052 3.34344 4.97086 3.48244 4.9533 3.57134C4.93645 3.65022 4.89958 3.71675 4.83952 3.77559C4.78183 3.83128 4.71452 3.85812 4.63602 3.85812C4.57914 3.85812 4.52864 3.84212 4.47905 3.80928C4.42698 3.77481 4.37889 3.72075 4.33402 3.64866L4.23386 3.48684L4.19705 3.67506L4.17061 3.81044H3.74361V0.768344H4.19539V1.87063L4.3332 1.65794C4.37648 1.59188 4.42452 1.54219 4.47498 1.51094C4.52545 1.47969 4.57752 1.46484 4.63598 1.46484C4.70489 1.46484 4.76495 1.47928 4.81383 1.50653C4.86186 1.53375 4.89714 1.571 4.92198 1.61909C4.9492 1.67238 4.96605 1.72366 4.97083 1.77331C4.99817 2.02366 4.98052 2.14825 4.98052 2.14384ZM6.54267 2.72503H5.7632V3.23975C5.7632 3.39834 5.77602 3.45044 5.78727 3.47847C5.81133 3.53772 5.86417 3.57178 5.93223 3.57178C6.00998 3.57178 6.06927 3.53094 6.09489 3.46044C6.11333 3.40953 6.12289 3.32384 6.12289 3.19163V2.94369H6.5427V3.05106C6.5427 3.19606 6.53464 3.30859 6.52023 3.38431C6.50661 3.45641 6.4738 3.53488 6.42173 3.619C6.37205 3.69834 6.30955 3.75963 6.2343 3.79844C6.15977 3.83813 6.06127 3.85812 5.94427 3.85812C5.82892 3.85812 5.72717 3.83772 5.63989 3.79806C5.5558 3.75837 5.48927 3.70475 5.4428 3.63706C5.39477 3.56575 5.36027 3.48684 5.34105 3.40153C5.32183 3.31222 5.31145 3.17844 5.31145 3.08709V2.37812C5.31145 2.09094 5.33386 1.92988 5.37714 1.81619C5.41798 1.70725 5.48364 1.62672 5.57661 1.56984C5.66952 1.51216 5.78011 1.48294 5.90267 1.48294C6.05405 1.48294 6.17905 1.51816 6.27517 1.58662C6.37289 1.65712 6.4402 1.74806 6.48027 1.86462C6.52111 1.98675 6.54277 2.24831 6.54277 2.47503V2.72503H6.54267Z" transform="translate(2.53125 6.75233) scale(1.54215)" fill="white"/>
<path d="M0.72175 1.21847L0.342844 -1.93787e-08H2.02179e-07L0.51025 1.73878L0.512687 1.75241V1.76644V2.98769H0.914844V1.76644V1.752L0.918031 1.738L1.36022 3.14519e-05H1.01653C0.915656 0.459031 0.788281 0.900437 0.72175 1.21847Z" transform="translate(4.41797 1.90668) scale(1.54215)" fill="white"/>
<path d="M1.14319 0.250344C1.09747 0.178219 1.03022 0.118562 0.942063 0.0720937C0.853156 0.023625 0.741812 2.28577e-07 0.613656 2.28577e-07C0.463031 2.28577e-07 0.338875 0.036844 0.245125 0.109375C0.153031 0.181063 0.0913126 0.272 0.0560939 0.388938C0.0184376 0.513125 1.90735e-07 0.692563 1.90735e-07 0.92125V1.33984C1.90735e-07 1.55172 0.0104377 1.71156 0.0312502 1.81328C0.0504689 1.90859 0.0833123 1.99031 0.127375 2.05641C0.170656 2.1205 0.233156 2.16937 0.314031 2.20222C0.402156 2.23706 0.511125 2.2555 0.639281 2.2555C0.753063 2.2555 0.853157 2.23466 0.938875 2.19341C1.02141 2.15456 1.08706 2.09606 1.13834 2.01397C1.19119 1.93144 1.22563 1.84253 1.24169 1.74841C1.25853 1.64628 1.26731 1.47966 1.26731 1.25294V0.864406C1.26731 0.689781 1.25766 0.560375 1.24009 0.478281C1.22325 0.40175 1.19044 0.324844 1.14319 0.250344ZM0.801906 1.621C0.801906 1.78922 0.789094 1.84891 0.777906 1.88216C0.753062 1.95184 0.701 1.99191 0.633688 1.99191C0.566438 1.99191 0.514312 1.94947 0.489531 1.87494C0.478312 1.84009 0.464688 1.77762 0.464688 1.59537V0.668125C0.464688 0.471875 0.4775 0.408969 0.490312 0.373313C0.515156 0.303219 0.568 0.263188 0.635281 0.263188C0.703406 0.263188 0.755469 0.304438 0.7795 0.376938C0.790719 0.411406 0.801906 0.473469 0.801906 0.668125V1.621Z" transform="translate(6.62683 3.10811) scale(1.54215)" fill="white"/>
<path d="M0.809875 -1.5564e-08V1.44878C0.809875 1.74397 0.801875 1.73638 0.793813 1.77163C0.785032 1.81128 0.752187 1.90341 0.636844 1.90341C0.527906 1.90341 0.493469 1.81528 0.483844 1.77803C0.475063 1.74159 0.465406 1.75159 0.465406 1.46803V3.14557e-05H5.34058e-08V1.45281C5.34058e-08 1.67191 0.00396883 1.81931 0.0103751 1.88981C0.0160001 1.95309 0.0311875 2.01437 0.0560313 2.07247C0.0785 2.12453 0.112125 2.16659 0.160218 2.19903C0.209843 2.23306 0.275563 2.25031 0.355657 2.25031C0.425344 2.25031 0.483843 2.23269 0.535906 2.19625C0.587187 2.16019 0.629656 2.10694 0.665656 2.03322L0.809875 2.09172L0.80425 2.20347H1.27531V6.24501e-05H0.809875V-1.5564e-08Z" transform="translate(9.12109 3.11615) scale(1.54215)" fill="white"/>
</svg>
