<svg viewBox="0 0 16 16" fill="none" xmlns="http://www.w3.org/2000/svg">
<path fill-rule="evenodd" clip-rule="evenodd" d="M2.3306 0.666066C2.3306 0.297633 2.02747 0 1.65807 0H0V1.33333H1.6581C2.02747 1.33333 2.3306 1.03497 2.3306 0.666066Z" transform="translate(4 6)" fill="#4F4F4F"/>
<path fill-rule="evenodd" clip-rule="evenodd" d="M1.6581 0H0V1.66667H1.99907C2.3681 1.66667 2.66107 1.23527 2.66107 0.865967C2.66107 0.1573 2.02747 0 1.6581 0Z" transform="translate(4 8.33339)" fill="#4F4F4F"/>
<path fill-rule="evenodd" clip-rule="evenodd" d="M13.9493 0H2.0507C0.9239 0 0 0.923933 0 2.05073V13.9492C0 15.076 0.9239 16 2.0507 16H13.9493C15.0762 16 16 15.076 16 13.9493V2.05073C16 0.923933 15.0762 0 13.9493 0ZM9.33333 5H12.3333V6H9.33333V5ZM5.99907 11.3333H2.66667V4.66667H5.99907C6.91643 4.66667 7.6636 5.41103 7.6636 6.3382C7.6636 6.93393 7.34207 7.46163 6.8692 7.75473C7.52163 7.98157 8.00447 8.6029 8.00447 9.33117C8.00443 10.4369 7.096 11.3333 5.99907 11.3333ZM13.3333 9H9.66937C9.71627 9.73333 10.2082 10.3344 10.842 10.3344C11.4659 10.3344 11.8163 9.93333 11.9392 9.33333H13.2917C13.0649 10.4667 12.3459 11.3374 10.842 11.3374C9.32867 11.3374 8.3352 10.2219 8.3352 8.83187C8.3352 7.451 9.32577 6.33617 10.8391 6.33617C12.343 6.33617 13.3333 7.45103 13.3333 8.83163C13.3333 8.888 13.3333 8.93333 13.3333 9Z" fill="#4F4F4F"/>
<path fill-rule="evenodd" clip-rule="evenodd" d="M1.1071 2.44141e-08C0.520667 2.44141e-08 0.0761999 0.3931 -9.76562e-08 0.9931H2.2043C2.1095 0.3931 1.68387 2.44141e-08 1.1071 2.44141e-08Z" transform="translate(9.73499 7.3403)" fill="#4F4F4F"/>
</svg>
