<svg viewBox="0 0 108 43" fill="none" xmlns="http://www.w3.org/2000/svg">
<path d="M5.22461 4.10156C5.86914 4.10156 6.44206 4.24479 6.94336 4.53125C7.44466 4.8112 7.85156 5.20182 8.16406 5.70312V0.625H10.9863V15H8.28125V13.5254C7.88411 14.1569 7.43164 14.6159 6.92383 14.9023C6.41602 15.1888 5.78451 15.332 5.0293 15.332C3.78581 15.332 2.73763 14.8307 1.88477 13.8281C1.03841 12.819 0.615234 11.5267 0.615234 9.95117C0.615234 8.13477 1.0319 6.70573 1.86523 5.66406C2.70508 4.6224 3.82487 4.10156 5.22461 4.10156ZM5.83008 12.9883C6.61784 12.9883 7.2168 12.6953 7.62695 12.1094C8.03711 11.5234 8.24219 10.765 8.24219 9.83398C8.24219 8.5319 7.91341 7.60091 7.25586 7.04102C6.85221 6.70247 6.38346 6.5332 5.84961 6.5332C5.03581 6.5332 4.43685 6.84245 4.05273 7.46094C3.67513 8.07292 3.48633 8.83464 3.48633 9.74609C3.48633 10.7292 3.67839 11.5169 4.0625 12.1094C4.45312 12.6953 5.04232 12.9883 5.83008 12.9883ZM17.7246 6.36719C17.0801 6.36719 16.5788 6.56901 16.2207 6.97266C15.8691 7.3763 15.6478 7.92318 15.5566 8.61328H19.8828C19.8372 7.8776 19.6126 7.32096 19.209 6.94336C18.8118 6.55924 18.3171 6.36719 17.7246 6.36719ZM17.7246 4.07227C18.61 4.07227 19.4076 4.23828 20.1172 4.57031C20.8268 4.90234 21.4128 5.42643 21.875 6.14258C22.2917 6.77409 22.5618 7.50651 22.6855 8.33984C22.7572 8.82812 22.7865 9.53125 22.7734 10.4492H15.4883C15.5273 11.5169 15.8626 12.2656 16.4941 12.6953C16.8783 12.9622 17.3405 13.0957 17.8809 13.0957C18.4538 13.0957 18.9193 12.9329 19.2773 12.6074C19.4727 12.4316 19.6452 12.1875 19.7949 11.875H22.6367C22.5651 12.5065 22.2363 13.1478 21.6504 13.7988C20.7389 14.834 19.4629 15.3516 17.8223 15.3516C16.4681 15.3516 15.2734 14.9154 14.2383 14.043C13.2031 13.1706 12.6855 11.7513 12.6855 9.78516C12.6855 7.94271 13.151 6.52995 14.082 5.54688C15.0195 4.5638 16.2337 4.07227 17.7246 4.07227ZM26.8262 11.6016C26.8848 12.0964 27.0117 12.4479 27.207 12.6562C27.5521 13.0273 28.1901 13.2129 29.1211 13.2129C29.668 13.2129 30.1009 13.1315 30.4199 12.9688C30.7454 12.806 30.9082 12.5618 30.9082 12.2363C30.9082 11.9238 30.778 11.6862 30.5176 11.5234C30.2572 11.3607 29.2904 11.0807 27.6172 10.6836C26.4128 10.3841 25.5632 10.0098 25.0684 9.56055C24.5736 9.11784 24.3262 8.47982 24.3262 7.64648C24.3262 6.66341 24.7103 5.82031 25.4785 5.11719C26.2533 4.40755 27.3405 4.05273 28.7402 4.05273C30.0684 4.05273 31.1491 4.31966 31.9824 4.85352C32.8223 5.38086 33.304 6.29557 33.4277 7.59766H30.6445C30.6055 7.23958 30.5046 6.95638 30.3418 6.74805C30.0358 6.37044 29.515 6.18164 28.7793 6.18164C28.1738 6.18164 27.7409 6.27604 27.4805 6.46484C27.2266 6.65365 27.0996 6.875 27.0996 7.12891C27.0996 7.44792 27.2363 7.67904 27.5098 7.82227C27.7832 7.97201 28.75 8.22917 30.4102 8.59375C31.5169 8.85417 32.347 9.24805 32.9004 9.77539C33.4473 10.3092 33.7207 10.9766 33.7207 11.7773C33.7207 12.832 33.3268 13.6947 32.5391 14.3652C31.7578 15.0293 30.5469 15.3613 28.9062 15.3613C27.2331 15.3613 25.9961 15.0098 25.1953 14.3066C24.401 13.597 24.0039 12.6953 24.0039 11.6016H26.8262ZM38.6523 3.08594H35.8301V0.517578H38.6523V3.08594ZM35.8301 4.35547H38.6523V15H35.8301V4.35547ZM45.9277 12.7148C46.5788 12.7148 47.1289 12.4707 47.5781 11.9824C48.0273 11.4876 48.252 10.7031 48.252 9.62891C48.252 8.61979 48.0371 7.85156 47.6074 7.32422C47.1842 6.79688 46.6146 6.5332 45.8984 6.5332C44.9219 6.5332 44.248 6.99219 43.877 7.91016C43.6816 8.39844 43.584 9.00065 43.584 9.7168C43.584 10.3353 43.6882 10.8854 43.8965 11.3672C44.2741 12.2656 44.9512 12.7148 45.9277 12.7148ZM45.2344 4.10156C45.7682 4.10156 46.2337 4.18294 46.6309 4.3457C47.3079 4.62565 47.8548 5.13997 48.2715 5.88867V4.35547H50.9766V14.4531C50.9766 15.8268 50.7454 16.862 50.2832 17.5586C49.4889 18.7565 47.9655 19.3555 45.7129 19.3555C44.3522 19.3555 43.2422 19.0885 42.3828 18.5547C41.5234 18.0208 41.0482 17.2233 40.957 16.1621H43.9844C44.0625 16.4876 44.1895 16.722 44.3652 16.8652C44.6647 17.1191 45.1693 17.2461 45.8789 17.2461C46.8815 17.2461 47.5521 16.9108 47.8906 16.2402C48.112 15.8105 48.2227 15.0879 48.2227 14.0723V13.3887C47.9557 13.8444 47.6693 14.1862 47.3633 14.4141C46.8099 14.8372 46.0905 15.0488 45.2051 15.0488C43.8379 15.0488 42.7441 14.5703 41.9238 13.6133C41.11 12.6497 40.7031 11.3477 40.7031 9.70703C40.7031 8.125 41.097 6.79688 41.8848 5.72266C42.6725 4.64193 43.7891 4.10156 45.2344 4.10156ZM59.4824 4.10156C60.5827 4.10156 61.4811 4.39128 62.1777 4.9707C62.8809 5.54362 63.2324 6.4974 63.2324 7.83203V15H60.3809V8.52539C60.3809 7.96549 60.306 7.53581 60.1562 7.23633C59.8828 6.68945 59.362 6.41602 58.5938 6.41602C57.6497 6.41602 57.002 6.81641 56.6504 7.61719C56.4681 8.04036 56.377 8.58073 56.377 9.23828V15H53.6035V4.375H56.2891V5.92773C56.6471 5.38086 56.9857 4.98698 57.3047 4.74609C57.8776 4.31641 58.6035 4.10156 59.4824 4.10156ZM77.2461 4.08203C77.9036 4.08203 78.4993 4.19596 79.0332 4.42383C79.5736 4.65169 80.0163 5 80.3613 5.46875C80.6543 5.86589 80.8333 6.27604 80.8984 6.69922C80.9635 7.11589 80.9961 7.79948 80.9961 8.75V15H78.1543V8.52539C78.1543 7.95247 78.0566 7.49023 77.8613 7.13867C77.6074 6.64388 77.1257 6.39648 76.416 6.39648C75.6803 6.39648 75.1204 6.64388 74.7363 7.13867C74.3587 7.62695 74.1699 8.32682 74.1699 9.23828V15H71.3965V0.654297H74.1699V5.74219C74.5736 5.1237 75.0391 4.69401 75.5664 4.45312C76.1003 4.20573 76.6602 4.08203 77.2461 4.08203ZM86.377 4.35547V10.7715C86.377 11.377 86.4486 11.8327 86.5918 12.1387C86.8457 12.679 87.3438 12.9492 88.0859 12.9492C89.0365 12.9492 89.6875 12.5651 90.0391 11.7969C90.2214 11.3802 90.3125 10.8301 90.3125 10.1465V4.35547H93.1348V15H90.4297V13.4961C90.4036 13.5286 90.3385 13.6263 90.2344 13.7891C90.1302 13.9518 90.0065 14.0951 89.8633 14.2188C89.4271 14.6094 89.0039 14.8763 88.5938 15.0195C88.1901 15.1628 87.7148 15.2344 87.168 15.2344C85.5924 15.2344 84.5312 14.668 83.9844 13.5352C83.6784 12.9102 83.5254 11.9889 83.5254 10.7715V4.35547H86.377ZM101.582 4.12109C102.982 4.12109 104.076 4.62565 104.863 5.63477C105.658 6.64388 106.055 7.94596 106.055 9.54102C106.055 11.1947 105.664 12.5651 104.883 13.6523C104.102 14.7396 103.011 15.2832 101.611 15.2832C100.732 15.2832 100.026 15.1074 99.4922 14.7559C99.1732 14.5475 98.8281 14.1829 98.457 13.6621V15H95.7324V0.625H98.5059V5.74219C98.8574 5.2474 99.2448 4.86979 99.668 4.60938C100.169 4.28385 100.807 4.12109 101.582 4.12109ZM100.869 12.9883C101.585 12.9883 102.142 12.6986 102.539 12.1191C102.936 11.5397 103.135 10.778 103.135 9.83398C103.135 9.07878 103.037 8.45378 102.842 7.95898C102.471 7.02148 101.787 6.55273 100.791 6.55273C99.7819 6.55273 99.0885 7.01172 98.7109 7.92969C98.5156 8.41797 98.418 9.04948 98.418 9.82422C98.418 10.7357 98.6198 11.4909 99.0234 12.0898C99.4271 12.6888 100.042 12.9883 100.869 12.9883Z" fill="#fff"/>
<path d="M1.539 15V5.158H2.679V15H1.539ZM1.482 3.011V1.32H2.736V3.011H1.482ZM6.71991 15H5.57991V5.158H6.71991V6.526C7.17591 6.04467 7.64458 5.652 8.12591 5.348C8.61991 5.044 9.20891 4.892 9.89291 4.892C10.5009 4.892 11.0646 4.99967 11.5839 5.215C12.1032 5.41767 12.5402 5.77867 12.8949 6.298C13.1356 6.65267 13.2749 7.02 13.3129 7.4C13.3636 7.76733 13.3889 8.15367 13.3889 8.559V15H12.2489V8.578C12.2489 7.69133 12.0526 7.02633 11.6599 6.583C11.2672 6.13967 10.6149 5.918 9.70291 5.918C9.34825 5.918 9.02525 5.975 8.73391 6.089C8.44258 6.19033 8.17658 6.32967 7.93591 6.507C7.70791 6.68433 7.51158 6.887 7.34691 7.115C7.18225 7.343 7.05558 7.58367 6.96691 7.837C6.85291 8.15367 6.78325 8.45767 6.75791 8.749C6.73258 9.04033 6.71991 9.357 6.71991 9.699V15ZM19.5955 15.038C19.4562 15.0633 19.2725 15.1077 19.0445 15.171C18.8165 15.2343 18.5632 15.266 18.2845 15.266C17.7145 15.266 17.2775 15.1267 16.9735 14.848C16.6822 14.5567 16.5365 14.0437 16.5365 13.309V6.108H15.1495V5.158H16.5365V2.422H17.6765V5.158H19.5195V6.108H17.6765V12.853C17.6765 13.0937 17.6829 13.3027 17.6955 13.48C17.7082 13.6573 17.7462 13.803 17.8095 13.917C17.8729 14.031 17.9679 14.1133 18.0945 14.164C18.2339 14.2147 18.4239 14.24 18.6645 14.24C18.8165 14.24 18.9685 14.2273 19.1205 14.202C19.2852 14.1767 19.4435 14.145 19.5955 14.107V15.038ZM28.5506 9.395C28.5506 8.91367 28.481 8.464 28.3416 8.046C28.215 7.61533 28.0186 7.248 27.7526 6.944C27.4993 6.62733 27.1763 6.38033 26.7836 6.203C26.391 6.013 25.9413 5.918 25.4346 5.918C24.928 5.918 24.4783 6.013 24.0856 6.203C23.7056 6.393 23.3763 6.64633 23.0976 6.963C22.8316 7.27967 22.6163 7.647 22.4516 8.065C22.287 8.483 22.1793 8.92633 22.1286 9.395H28.5506ZM22.1286 10.345C22.1286 10.877 22.1983 11.3837 22.3376 11.865C22.477 12.3337 22.6796 12.7453 22.9456 13.1C23.2243 13.442 23.5726 13.7207 23.9906 13.936C24.4086 14.1387 24.89 14.24 25.4346 14.24C26.182 14.24 26.8216 14.0437 27.3536 13.651C27.8856 13.2583 28.2403 12.701 28.4176 11.979H29.6906C29.5513 12.4477 29.3676 12.8847 29.1396 13.29C28.9116 13.6827 28.6266 14.031 28.2846 14.335C27.9426 14.6263 27.5373 14.8543 27.0686 15.019C26.6 15.1837 26.0553 15.266 25.4346 15.266C24.6493 15.266 23.9716 15.133 23.4016 14.867C22.8316 14.601 22.363 14.24 21.9956 13.784C21.6283 13.3153 21.356 12.7707 21.1786 12.15C21.0013 11.5167 20.9126 10.839 20.9126 10.117C20.9126 9.395 21.014 8.71733 21.2166 8.084C21.432 7.45067 21.7296 6.89967 22.1096 6.431C22.5023 5.94967 22.9773 5.576 23.5346 5.31C24.092 5.03133 24.7253 4.892 25.4346 4.892C26.79 4.892 27.854 5.36067 28.6266 6.298C29.3993 7.22267 29.7793 8.57167 29.7666 10.345H22.1286ZM33.1802 15H32.0402V5.158H33.1802V7.001H33.2182C33.5349 6.21567 33.9402 5.671 34.4342 5.367C34.9409 5.05033 35.6059 4.892 36.4292 4.892V6.127C35.7832 6.11433 35.2512 6.21567 34.8332 6.431C34.4152 6.64633 34.0796 6.93767 33.8262 7.305C33.5856 7.67233 33.4146 8.10933 33.3132 8.616C33.2246 9.11 33.1802 9.62933 33.1802 10.174V15ZM39.4504 15H38.3104V5.158H39.4504V6.526C39.9064 6.04467 40.375 5.652 40.8564 5.348C41.3504 5.044 41.9394 4.892 42.6234 4.892C43.2314 4.892 43.795 4.99967 44.3144 5.215C44.8337 5.41767 45.2707 5.77867 45.6254 6.298C45.866 6.65267 46.0054 7.02 46.0434 7.4C46.094 7.76733 46.1194 8.15367 46.1194 8.559V15H44.9794V8.578C44.9794 7.69133 44.783 7.02633 44.3904 6.583C43.9977 6.13967 43.3454 5.918 42.4334 5.918C42.0787 5.918 41.7557 5.975 41.4644 6.089C41.173 6.19033 40.907 6.32967 40.6664 6.507C40.4384 6.68433 40.242 6.887 40.0774 7.115C39.9127 7.343 39.786 7.58367 39.6974 7.837C39.5834 8.15367 39.5137 8.45767 39.4884 8.749C39.463 9.04033 39.4504 9.357 39.4504 9.699V15ZM55.309 9.832C54.8277 10.0347 54.34 10.1677 53.846 10.231C53.352 10.2943 52.858 10.345 52.364 10.383C51.49 10.4463 50.806 10.6427 50.312 10.972C49.8307 11.3013 49.59 11.8017 49.59 12.473C49.59 12.777 49.647 13.043 49.761 13.271C49.8877 13.4863 50.046 13.67 50.236 13.822C50.4387 13.9613 50.6667 14.069 50.92 14.145C51.186 14.2083 51.452 14.24 51.718 14.24C52.174 14.24 52.6173 14.183 53.048 14.069C53.4787 13.955 53.8587 13.784 54.188 13.556C54.53 13.3153 54.8023 13.0177 55.005 12.663C55.2077 12.2957 55.309 11.865 55.309 11.371V9.832ZM53.39 9.262C53.6053 9.23667 53.8587 9.19867 54.15 9.148C54.454 9.09733 54.701 9.02767 54.891 8.939C55.081 8.85033 55.195 8.70467 55.233 8.502C55.2837 8.28667 55.309 8.09033 55.309 7.913C55.309 7.33033 55.119 6.85533 54.739 6.488C54.3717 6.108 53.7447 5.918 52.858 5.918C52.4653 5.918 52.1043 5.956 51.775 6.032C51.4457 6.09533 51.1543 6.21567 50.901 6.393C50.6603 6.55767 50.4577 6.78567 50.293 7.077C50.141 7.35567 50.0397 7.71033 49.989 8.141H48.83C48.868 7.55833 49.001 7.06433 49.229 6.659C49.457 6.241 49.7483 5.90533 50.103 5.652C50.4703 5.386 50.8883 5.196 51.357 5.082C51.8383 4.95533 52.345 4.892 52.877 4.892C53.371 4.892 53.8333 4.949 54.264 5.063C54.7073 5.16433 55.0873 5.33533 55.404 5.576C55.7333 5.804 55.9867 6.11433 56.164 6.507C56.354 6.89967 56.449 7.381 56.449 7.951V13.309C56.449 13.7523 56.525 14.0373 56.677 14.164C56.8417 14.278 57.1647 14.2463 57.646 14.069V14.962C57.5573 14.9873 57.4243 15.0253 57.247 15.076C57.0823 15.1267 56.9177 15.152 56.753 15.152C56.5757 15.152 56.4047 15.133 56.24 15.095C56.05 15.0697 55.898 15.0127 55.784 14.924C55.67 14.8227 55.575 14.7087 55.499 14.582C55.4357 14.4427 55.3913 14.297 55.366 14.145C55.3407 13.9803 55.328 13.8093 55.328 13.632C54.8467 14.164 54.2957 14.5693 53.675 14.848C53.0543 15.1267 52.383 15.266 51.661 15.266C51.2303 15.266 50.8123 15.209 50.407 15.095C50.0143 14.981 49.666 14.8037 49.362 14.563C49.058 14.3223 48.8173 14.031 48.64 13.689C48.4627 13.3343 48.374 12.9163 48.374 12.435C48.374 10.763 49.5203 9.775 51.813 9.471L53.39 9.262ZM62.8836 15.038C62.7443 15.0633 62.5606 15.1077 62.3326 15.171C62.1046 15.2343 61.8513 15.266 61.5726 15.266C61.0026 15.266 60.5656 15.1267 60.2616 14.848C59.9703 14.5567 59.8246 14.0437 59.8246 13.309V6.108H58.4376V5.158H59.8246V2.422H60.9646V5.158H62.8076V6.108H60.9646V12.853C60.9646 13.0937 60.971 13.3027 60.9836 13.48C60.9963 13.6573 61.0343 13.803 61.0976 13.917C61.161 14.031 61.256 14.1133 61.3826 14.164C61.522 14.2147 61.712 14.24 61.9526 14.24C62.1046 14.24 62.2566 14.2273 62.4086 14.202C62.5733 14.1767 62.7316 14.145 62.8836 14.107V15.038ZM64.8847 15V5.158H66.0247V15H64.8847ZM64.8277 3.011V1.32H66.0817V3.011H64.8277ZM72.8396 15.266C72.2063 15.2533 71.611 15.1393 71.0536 14.924C70.509 14.7087 70.0276 14.3857 69.6096 13.955C69.2043 13.5243 68.8813 12.986 68.6406 12.34C68.4 11.694 68.2796 10.9403 68.2796 10.079C68.2796 9.357 68.3746 8.68567 68.5646 8.065C68.7546 7.43167 69.0396 6.88067 69.4196 6.412C69.7996 5.94333 70.2746 5.576 70.8446 5.31C71.4146 5.03133 72.0796 4.892 72.8396 4.892C73.6123 4.892 74.2836 5.03133 74.8536 5.31C75.4236 5.576 75.8986 5.94333 76.2786 6.412C76.6586 6.868 76.9373 7.41267 77.1146 8.046C77.3046 8.67933 77.3996 9.357 77.3996 10.079C77.3996 10.8643 77.292 11.5737 77.0766 12.207C76.8613 12.8403 76.551 13.385 76.1456 13.841C75.753 14.297 75.2716 14.6517 74.7016 14.905C74.1443 15.1457 73.5236 15.266 72.8396 15.266ZM76.1836 10.079C76.1836 9.49633 76.1203 8.95167 75.9936 8.445C75.867 7.93833 75.6706 7.50133 75.4046 7.134C75.1386 6.754 74.7966 6.45633 74.3786 6.241C73.9606 6.02567 73.4476 5.918 72.8396 5.918C72.2443 5.918 71.7313 6.03833 71.3006 6.279C70.8826 6.507 70.5406 6.81733 70.2746 7.21C70.0086 7.59 69.8123 8.03333 69.6856 8.54C69.559 9.034 69.4956 9.547 69.4956 10.079C69.4956 10.687 69.5653 11.2507 69.7046 11.77C69.8566 12.2767 70.072 12.7137 70.3506 13.081C70.6293 13.4483 70.9776 13.7333 71.3956 13.936C71.8136 14.1387 72.295 14.24 72.8396 14.24C73.435 14.24 73.9416 14.126 74.3596 13.898C74.7903 13.6573 75.1386 13.3407 75.4046 12.948C75.6706 12.5553 75.867 12.112 75.9936 11.618C76.1203 11.124 76.1836 10.611 76.1836 10.079ZM80.6232 15H79.4832V5.158H80.6232V6.526C81.0792 6.04467 81.5479 5.652 82.0292 5.348C82.5232 5.044 83.1122 4.892 83.7962 4.892C84.4042 4.892 84.9679 4.99967 85.4872 5.215C86.0066 5.41767 86.4436 5.77867 86.7982 6.298C87.0389 6.65267 87.1782 7.02 87.2162 7.4C87.2669 7.76733 87.2922 8.15367 87.2922 8.559V15H86.1522V8.578C86.1522 7.69133 85.9559 7.02633 85.5632 6.583C85.1706 6.13967 84.5182 5.918 83.6062 5.918C83.2516 5.918 82.9286 5.975 82.6372 6.089C82.3459 6.19033 82.0799 6.32967 81.8392 6.507C81.6112 6.68433 81.4149 6.887 81.2502 7.115C81.0856 7.343 80.9589 7.58367 80.8702 7.837C80.7562 8.15367 80.6866 8.45767 80.6612 8.749C80.6359 9.04033 80.6232 9.357 80.6232 9.699V15ZM96.4819 9.832C96.0005 10.0347 95.5129 10.1677 95.0189 10.231C94.5249 10.2943 94.0309 10.345 93.5369 10.383C92.6629 10.4463 91.9789 10.6427 91.4849 10.972C91.0035 11.3013 90.7629 11.8017 90.7629 12.473C90.7629 12.777 90.8199 13.043 90.9339 13.271C91.0605 13.4863 91.2189 13.67 91.4089 13.822C91.6115 13.9613 91.8395 14.069 92.0929 14.145C92.3589 14.2083 92.6249 14.24 92.8909 14.24C93.3469 14.24 93.7902 14.183 94.2209 14.069C94.6515 13.955 95.0315 13.784 95.3609 13.556C95.7029 13.3153 95.9752 13.0177 96.1779 12.663C96.3805 12.2957 96.4819 11.865 96.4819 11.371V9.832ZM94.5629 9.262C94.7782 9.23667 95.0315 9.19867 95.3229 9.148C95.6269 9.09733 95.8739 9.02767 96.0639 8.939C96.2539 8.85033 96.3679 8.70467 96.4059 8.502C96.4565 8.28667 96.4819 8.09033 96.4819 7.913C96.4819 7.33033 96.2919 6.85533 95.9119 6.488C95.5445 6.108 94.9175 5.918 94.0309 5.918C93.6382 5.918 93.2772 5.956 92.9479 6.032C92.6185 6.09533 92.3272 6.21567 92.0739 6.393C91.8332 6.55767 91.6305 6.78567 91.4659 7.077C91.3139 7.35567 91.2125 7.71033 91.1619 8.141H90.0029C90.0409 7.55833 90.1739 7.06433 90.4019 6.659C90.6299 6.241 90.9212 5.90533 91.2759 5.652C91.6432 5.386 92.0612 5.196 92.5299 5.082C93.0112 4.95533 93.5179 4.892 94.0499 4.892C94.5439 4.892 95.0062 4.949 95.4369 5.063C95.8802 5.16433 96.2602 5.33533 96.5769 5.576C96.9062 5.804 97.1595 6.11433 97.3369 6.507C97.5269 6.89967 97.6219 7.381 97.6219 7.951V13.309C97.6219 13.7523 97.6979 14.0373 97.8499 14.164C98.0145 14.278 98.3375 14.2463 98.8189 14.069V14.962C98.7302 14.9873 98.5972 15.0253 98.4199 15.076C98.2552 15.1267 98.0905 15.152 97.9259 15.152C97.7485 15.152 97.5775 15.133 97.4129 15.095C97.2229 15.0697 97.0709 15.0127 96.9569 14.924C96.8429 14.8227 96.7479 14.7087 96.6719 14.582C96.6085 14.4427 96.5642 14.297 96.5389 14.145C96.5135 13.9803 96.5009 13.8093 96.5009 13.632C96.0195 14.164 95.4685 14.5693 94.8479 14.848C94.2272 15.1267 93.5559 15.266 92.8339 15.266C92.4032 15.266 91.9852 15.209 91.5799 15.095C91.1872 14.981 90.8389 14.8037 90.5349 14.563C90.2309 14.3223 89.9902 14.031 89.8129 13.689C89.6355 13.3343 89.5469 12.9163 89.5469 12.435C89.5469 10.763 90.6932 9.775 92.9859 9.471L94.5629 9.262ZM100.769 15V1.32H101.909V15H100.769Z" transform="translate(0 18) scale(1.05 1)" fill="#fff"/>
</svg>
